<svg id="svg" version="1.1" xmlns="http://www.w3.org/2000/svg" xmlns:xlink="http://www.w3.org/1999/xlink" width="400" height="188.1592039800995" viewBox="0, 0, 400,188.1592039800995"><g id="svgg"><path id="path0" d="M148.090 2.681 C 142.079 7.181,138.639 13.945,136.019 26.417 C 131.550 47.686,131.628 67.962,136.262 89.480 C 137.322 94.404,137.832 95.019,139.684 93.610 C 141.328 92.360,141.576 92.421,141.472 94.050 C 141.388 95.374,140.907 96.084,139.490 96.981 L 138.524 97.591 139.565 100.004 C 142.275 106.290,144.379 109.196,147.904 111.519 C 149.708 112.709,151.814 112.852,153.621 111.910 C 153.875 111.777,154.177 111.668,154.292 111.668 C 154.406 111.667,154.500 111.592,154.500 111.500 C 154.500 111.408,154.583 111.333,154.684 111.333 C 155.274 111.333,157.597 109.035,158.895 107.167 C 161.802 102.981,163.830 98.183,165.478 91.583 C 165.661 90.850,165.969 89.650,166.163 88.917 C 166.357 88.183,166.619 87.096,166.747 86.500 C 166.874 85.904,167.027 85.289,167.088 85.132 C 167.190 84.867,166.626 84.844,158.610 84.799 C 149.021 84.744,149.529 84.809,148.792 83.550 C 147.507 81.357,147.569 73.750,148.887 71.814 C 149.777 70.507,149.068 70.594,159.591 70.491 C 164.761 70.440,169.021 70.365,169.058 70.324 C 169.486 69.848,169.495 44.832,169.066 44.139 C 169.019 44.063,165.066 43.998,160.282 43.996 C 150.668 43.992,150.713 43.997,149.859 42.911 C 148.145 40.732,148.376 32.042,150.192 30.396 C 150.984 29.679,151.039 29.674,159.074 29.608 C 163.348 29.572,166.879 29.510,166.920 29.469 C 167.074 29.315,165.525 22.826,164.719 20.250 C 164.244 18.734,163.136 15.596,162.806 14.833 C 162.628 14.421,162.423 13.933,162.352 13.750 C 159.538 6.514,155.260 2.266,150.420 1.901 L 149.250 1.813 148.090 2.681 M246.667 2.121 C 244.590 2.376,242.169 3.791,240.537 5.702 C 239.691 6.694,237.833 9.404,237.833 9.646 C 237.833 9.734,237.775 9.831,237.704 9.861 C 237.598 9.907,236.195 12.676,235.650 13.917 C 235.012 15.366,233.988 18.494,233.383 20.833 C 231.124 29.581,229.932 36.285,229.251 44.083 C 229.114 45.642,228.946 47.517,228.877 48.250 C 228.712 49.979,228.713 63.680,228.877 65.417 C 228.946 66.150,229.112 68.025,229.245 69.583 C 229.939 77.703,231.285 85.813,233.239 93.638 C 234.132 97.215,236.798 103.753,237.792 104.804 C 237.906 104.925,238.000 105.090,238.000 105.170 C 238.000 105.360,238.844 106.633,239.877 108.000 C 243.029 112.171,247.286 113.601,250.410 111.538 C 254.628 108.752,258.016 103.083,260.493 94.667 C 260.695 93.979,260.964 93.079,261.090 92.667 C 263.664 84.255,265.417 69.803,265.407 57.083 C 265.386 31.536,259.979 10.884,251.440 3.739 L 249.860 2.417 254.638 2.333 C 258.821 2.260,259.178 2.235,257.500 2.128 C 255.705 2.013,247.584 2.008,246.667 2.121 M268.667 11.273 C 268.667 11.288,268.973 11.964,269.348 12.775 C 272.149 18.837,274.093 26.173,275.482 35.917 C 276.629 43.961,276.905 47.928,276.909 56.417 C 276.918 74.613,274.712 88.623,269.994 100.334 C 268.823 103.242,268.818 103.347,269.835 103.612 C 270.779 103.858,287.206 103.903,288.917 103.664 C 292.484 103.166,294.204 101.092,294.125 97.380 L 294.083 95.417 295.258 93.083 C 297.423 88.785,298.771 90.661,297.397 96.059 C 296.867 98.139,297.821 97.445,300.341 93.917 C 301.061 92.908,301.727 91.995,301.821 91.886 C 302.109 91.554,304.447 88.259,306.943 84.667 C 309.672 80.741,309.776 80.600,310.979 79.253 C 312.376 77.688,313.804 76.364,315.250 75.290 C 315.708 74.950,316.158 74.613,316.250 74.541 C 317.560 73.514,323.330 70.500,323.986 70.500 C 324.088 70.500,324.301 70.432,324.461 70.348 C 324.953 70.090,326.486 69.610,329.333 68.825 C 332.530 67.943,337.095 67.364,341.007 67.345 C 345.929 67.321,347.418 66.309,348.656 62.145 C 349.640 58.834,349.648 56.440,348.685 52.628 C 347.629 48.447,345.895 47.109,341.640 47.191 C 337.354 47.274,330.902 46.322,326.583 44.970 C 319.223 42.666,312.767 38.176,308.531 32.417 C 307.932 31.601,306.785 29.884,306.249 29.000 C 305.713 28.114,302.634 23.711,301.800 22.638 C 301.681 22.484,301.471 22.193,301.333 21.992 C 298.380 17.660,294.367 13.699,291.862 12.641 C 291.434 12.460,290.933 12.246,290.750 12.167 C 289.475 11.611,288.456 11.460,285.583 11.399 C 282.336 11.330,268.667 11.228,268.667 11.273 M109.917 11.441 C 106.033 12.249,102.471 14.668,99.403 18.583 C 99.044 19.041,98.675 19.501,98.583 19.604 C 98.492 19.708,98.304 19.961,98.167 20.166 C 98.029 20.371,97.200 21.524,96.324 22.728 C 94.679 24.987,92.495 28.072,90.750 30.599 C 87.943 34.665,85.215 37.672,82.833 39.328 C 82.512 39.551,82.212 39.778,82.167 39.832 C 82.121 39.886,81.483 40.311,80.750 40.777 C 74.455 44.779,65.633 47.193,57.432 47.159 C 51.019 47.133,48.912 49.712,48.919 57.583 C 48.922 61.663,50.265 65.405,52.119 66.499 C 52.899 66.960,55.082 67.329,57.083 67.340 C 60.848 67.360,68.464 68.466,70.750 69.326 C 70.933 69.395,71.822 69.691,72.726 69.984 C 76.192 71.107,81.152 73.685,82.918 75.281 C 83.103 75.447,83.628 75.882,84.085 76.248 C 85.291 77.211,87.266 79.227,88.417 80.667 C 88.966 81.354,89.456 81.954,89.506 82.000 C 89.556 82.046,90.117 82.871,90.753 83.833 C 91.389 84.796,91.973 85.658,92.051 85.750 C 92.160 85.879,94.460 89.192,96.202 91.729 C 96.320 91.900,96.492 92.125,96.583 92.229 C 96.675 92.332,96.955 92.717,97.205 93.083 C 97.456 93.450,97.831 93.951,98.039 94.198 C 98.247 94.444,98.790 95.119,99.247 95.698 C 101.880 99.036,104.369 101.029,104.784 100.132 C 105.724 98.099,107.651 97.124,111.000 96.986 C 112.421 96.927,113.876 96.787,114.234 96.675 C 116.023 96.112,116.917 98.561,115.706 100.706 C 115.169 101.657,114.947 103.178,115.311 103.403 C 115.923 103.781,121.442 104.024,124.868 103.824 L 128.487 103.613 129.014 103.069 L 129.541 102.525 129.180 102.019 C 124.993 96.139,121.336 75.424,121.335 57.583 C 121.334 39.370,123.862 24.018,128.641 13.208 L 129.470 11.333 119.860 11.353 C 114.574 11.363,110.100 11.403,109.917 11.441 M248.052 30.132 C 250.004 32.289,249.720 42.568,247.678 43.661 C 245.008 45.090,243.626 35.082,245.890 30.717 C 246.355 29.819,247.491 29.512,248.052 30.132 M248.369 71.583 C 249.934 74.468,249.677 82.458,247.960 84.292 C 245.451 86.970,243.694 77.916,245.610 72.186 C 246.217 70.371,247.552 70.079,248.369 71.583 M112.833 117.337 C 112.833 117.431,113.096 118.811,113.417 120.405 C 114.118 123.891,114.134 124.649,113.549 126.777 C 112.896 129.152,113.038 135.761,113.759 136.481 C 113.922 136.644,116.110 136.489,117.132 136.241 C 118.792 135.839,119.135 135.199,118.641 133.417 C 118.525 132.999,118.447 130.665,118.431 127.167 C 118.410 122.367,118.365 121.431,118.109 120.500 C 117.830 119.489,117.333 117.995,117.228 117.855 C 117.036 117.598,112.833 117.103,112.833 117.337 " stroke="none" fill="#ab33eb" fill-rule="evenodd"></path><path id="path1" d="M103.252 135.542 C 103.006 136.600,102.667 139.725,102.667 140.939 C 102.667 142.593,103.006 145.364,103.583 148.417 C 103.722 149.150,103.997 150.865,104.194 152.228 L 104.553 154.707 104.182 156.728 C 103.582 159.988,103.513 160.480,103.360 162.583 C 103.213 164.596,103.448 169.900,103.821 173.000 C 103.914 173.779,104.039 174.918,104.097 175.530 L 104.203 176.644 104.893 176.776 C 106.181 177.023,107.191 176.395,107.414 175.208 C 107.474 174.883,107.633 174.452,107.766 174.249 C 107.899 174.047,108.125 173.251,108.268 172.482 C 108.412 171.713,108.641 170.483,108.778 169.750 C 110.059 162.881,110.808 156.464,110.825 152.220 C 110.833 150.146,110.853 150.016,111.179 149.913 C 111.596 149.780,111.565 149.742,111.790 150.667 C 111.891 151.079,112.087 151.829,112.227 152.333 C 113.991 158.701,114.065 159.406,113.584 165.250 C 113.145 170.599,113.285 173.317,114.057 174.410 C 114.319 174.780,114.428 175.257,114.498 176.326 C 114.634 178.395,114.703 178.475,116.187 178.298 C 118.523 178.019,119.934 176.433,119.149 174.967 C 119.014 174.715,119.018 173.949,119.162 172.103 C 119.428 168.697,119.487 168.277,120.333 163.667 C 121.094 159.524,121.099 151.290,120.343 146.833 C 120.258 146.329,120.142 145.504,120.085 145.000 C 119.961 143.907,119.410 140.817,119.087 139.417 C 118.446 136.630,118.280 136.000,118.186 136.002 C 118.129 136.003,117.708 136.121,117.250 136.265 C 116.792 136.409,115.442 136.593,114.250 136.673 C 113.058 136.754,111.393 136.872,110.550 136.934 C 108.105 137.116,105.461 136.541,104.017 135.512 C 103.409 135.079,103.360 135.081,103.252 135.542 M284.500 142.519 C 280.508 143.606,275.525 143.808,272.351 143.011 C 271.581 142.818,270.918 142.693,270.878 142.733 C 270.197 143.414,270.285 153.512,271.004 157.250 C 271.092 157.708,271.319 158.946,271.507 160.000 C 271.695 161.054,271.950 162.367,272.073 162.917 C 272.195 163.467,272.420 164.517,272.573 165.250 C 272.725 165.983,272.918 166.846,273.001 167.167 C 273.142 167.708,273.326 169.026,273.917 173.750 C 274.194 175.967,274.407 177.108,274.781 178.375 L 275.063 179.333 276.775 179.333 C 278.427 179.333,278.501 179.317,278.915 178.875 C 279.481 178.270,279.404 178.749,279.886 172.835 L 280.083 170.419 280.282 171.418 C 280.391 171.967,280.642 173.317,280.838 174.417 C 281.811 179.854,281.695 179.694,284.696 179.727 L 286.750 179.750 286.865 178.250 C 286.928 177.425,287.108 175.137,287.264 173.167 C 287.773 166.769,287.765 165.896,287.188 164.029 C 286.164 160.722,286.095 159.549,286.629 154.507 C 287.333 147.856,287.202 141.853,286.356 142.021 C 286.298 142.033,285.462 142.257,284.500 142.519 M279.407 166.917 L 279.510 167.750 279.250 167.177 C 279.000 166.626,278.661 164.773,278.685 164.083 C 278.700 163.619,279.282 165.901,279.407 166.917 " stroke="none" fill="#fba71e" fill-rule="evenodd"></path><path id="path2" d="M139.502 1.953 C 136.662 2.387,134.453 3.780,132.298 6.500 C 131.480 7.532,129.519 10.831,129.425 11.333 C 129.416 11.379,128.947 12.504,128.383 13.833 C 121.877 29.147,119.672 53.278,122.597 77.167 C 123.945 88.183,126.919 99.312,129.267 102.130 L 129.583 102.510 130.583 101.892 C 133.594 100.031,135.755 97.664,137.028 94.833 L 137.440 93.917 137.133 92.917 C 133.977 82.623,132.046 61.990,132.976 48.500 C 134.676 23.849,139.812 8.381,148.218 2.597 C 148.740 2.238,149.167 1.882,149.167 1.806 C 149.167 1.567,141.241 1.688,139.502 1.953 M249.917 2.461 C 250.008 2.542,250.766 3.184,251.600 3.887 C 262.932 13.443,268.455 48.212,263.729 80.250 C 263.144 84.221,261.936 89.901,261.090 92.667 C 260.964 93.079,260.695 93.979,260.493 94.667 C 258.024 103.055,254.600 108.795,250.447 111.508 L 249.311 112.250 253.114 112.397 C 258.877 112.620,262.243 112.074,263.162 110.766 C 263.952 109.641,265.921 107.819,266.256 107.903 C 267.011 108.093,269.204 104.315,269.025 103.132 C 269.001 102.976,269.438 101.716,269.995 100.332 C 276.607 83.916,278.746 58.813,275.482 35.917 C 273.926 24.999,272.077 18.489,268.120 10.000 C 266.792 7.152,264.000 4.014,261.853 2.956 L 260.758 2.417 255.254 2.365 C 252.062 2.335,249.820 2.375,249.917 2.461 M151.600 29.684 C 150.328 29.890,149.592 30.765,149.144 32.606 C 148.323 35.983,148.701 41.439,149.859 42.911 C 150.766 44.064,149.284 43.992,172.279 43.996 L 192.974 44.000 194.295 43.323 C 197.332 41.766,198.417 40.079,198.417 36.917 C 198.417 32.873,196.522 30.637,192.333 29.740 C 191.064 29.468,153.256 29.416,151.600 29.684 M246.458 30.013 C 243.962 31.467,244.450 43.833,247.003 43.833 C 248.625 43.833,249.392 41.271,249.298 36.167 C 249.203 31.059,248.242 28.975,246.458 30.013 M2.667 43.331 C 2.667 49.086,2.680 49.333,2.979 49.333 C 3.150 49.333,3.657 49.489,4.104 49.680 C 4.551 49.871,5.179 50.139,5.500 50.275 C 5.821 50.411,6.233 50.589,6.417 50.670 C 6.600 50.752,7.237 51.013,7.833 51.250 C 8.429 51.487,9.067 51.752,9.250 51.839 C 9.433 51.925,10.596 52.374,11.833 52.836 C 13.071 53.299,14.320 53.787,14.609 53.922 C 14.897 54.056,15.217 54.167,15.319 54.167 C 15.421 54.167,15.635 54.236,15.794 54.320 C 15.953 54.404,16.571 54.637,17.167 54.836 C 17.762 55.036,18.400 55.263,18.583 55.341 C 19.019 55.526,23.248 56.929,24.000 57.138 C 24.321 57.227,25.521 57.578,26.667 57.917 C 29.959 58.891,33.283 59.737,35.833 60.250 C 40.007 61.090,41.675 61.369,44.833 61.752 C 48.025 62.139,49.500 62.235,49.500 62.054 C 49.500 61.966,49.370 61.486,49.212 60.989 C 48.777 59.624,48.825 55.496,49.303 53.175 C 49.673 51.377,49.644 51.187,49.000 51.162 C 48.509 51.143,44.891 50.669,43.417 50.432 C 41.230 50.079,37.648 49.373,35.750 48.921 C 32.792 48.217,31.899 47.978,29.083 47.142 C 27.265 46.602,21.473 44.675,20.917 44.425 C 20.642 44.301,20.042 44.078,19.583 43.929 C 19.125 43.781,18.600 43.587,18.417 43.498 C 18.233 43.410,17.071 42.961,15.833 42.500 C 14.596 42.039,13.433 41.591,13.250 41.503 C 13.067 41.415,11.829 40.926,10.500 40.417 C 9.171 39.907,7.933 39.418,7.750 39.330 C 7.567 39.241,6.629 38.874,5.667 38.514 C 4.704 38.154,3.635 37.740,3.292 37.594 L 2.667 37.329 2.667 43.331 M348.580 52.125 C 349.643 56.308,349.644 59.687,348.584 62.365 C 348.455 62.691,348.556 62.713,351.500 62.995 C 357.970 63.616,365.984 65.219,374.833 67.661 C 376.895 68.230,378.634 68.695,379.833 68.999 C 380.246 69.104,380.698 69.250,380.839 69.324 C 380.979 69.397,381.354 69.512,381.672 69.579 C 382.328 69.716,383.107 69.951,385.833 70.832 C 391.464 72.653,393.020 73.116,395.638 73.746 C 397.527 74.201,397.333 74.826,397.333 68.263 L 397.333 62.526 396.875 62.436 C 396.623 62.386,396.117 62.296,395.750 62.237 C 395.163 62.142,394.161 61.882,392.167 61.306 C 391.846 61.213,390.458 60.765,389.083 60.309 C 387.708 59.854,385.796 59.254,384.833 58.976 C 381.774 58.094,379.618 57.488,378.417 57.173 C 374.893 56.248,371.108 55.288,370.083 55.058 C 369.442 54.915,368.467 54.692,367.917 54.564 C 366.973 54.343,365.922 54.128,363.000 53.559 C 359.598 52.896,357.068 52.514,353.750 52.162 C 352.833 52.065,351.537 51.914,350.868 51.826 C 348.741 51.547,348.443 51.586,348.580 52.125 M158.137 70.496 C 149.256 70.594,149.767 70.521,148.887 71.814 C 147.164 74.344,147.621 82.958,149.554 84.399 C 150.100 84.807,165.206 85.057,183.083 84.955 L 192.083 84.904 193.416 84.440 C 197.084 83.164,198.416 81.378,198.417 77.737 C 198.417 74.137,197.059 72.227,193.585 70.941 C 192.156 70.412,179.860 70.257,158.137 70.496 M246.220 71.034 C 243.879 73.572,244.582 84.667,247.083 84.667 C 250.099 84.667,250.258 70.922,247.245 70.701 C 246.718 70.662,246.497 70.734,246.220 71.034 M114.083 96.703 C 113.808 96.799,112.421 96.928,111.000 96.989 C 107.672 97.132,106.373 97.729,105.051 99.726 L 104.581 100.435 104.715 102.426 C 104.870 104.738,105.261 107.043,105.612 107.722 C 105.951 108.377,105.968 108.371,103.297 108.444 C 99.378 108.550,99.229 108.673,99.390 111.673 C 99.524 114.169,99.856 115.388,100.872 117.122 C 103.018 120.783,103.544 123.600,103.210 129.636 C 103.050 132.530,103.106 134.859,103.339 135.045 C 104.759 136.178,107.112 136.833,109.763 136.833 C 111.846 136.833,113.667 136.613,113.666 136.361 C 113.666 136.300,113.540 135.575,113.385 134.750 C 112.921 132.262,112.992 128.803,113.549 126.777 C 114.136 124.642,114.119 123.904,113.399 120.312 C 113.068 118.663,112.841 117.270,112.894 117.218 C 112.946 117.165,114.003 117.283,115.242 117.481 C 116.784 117.727,117.587 117.789,117.789 117.678 C 117.951 117.589,118.346 117.405,118.667 117.270 C 123.396 115.275,123.380 115.311,121.344 111.426 C 120.434 109.690,120.066 108.829,120.166 108.668 C 120.364 108.347,120.246 108.204,119.543 107.911 C 118.594 107.514,117.281 108.064,115.263 109.704 C 114.242 110.533,113.299 111.050,112.464 111.236 C 112.196 111.296,112.044 111.422,112.092 111.545 C 112.198 111.821,110.590 112.773,109.652 112.989 C 107.151 113.565,106.378 112.833,106.608 110.106 L 106.710 108.894 107.803 108.706 C 109.878 108.351,111.500 106.392,111.500 104.242 L 111.500 103.340 112.368 102.844 C 112.845 102.572,113.659 102.222,114.176 102.067 C 115.840 101.569,116.796 99.029,115.941 97.380 C 115.504 96.537,115.042 96.368,114.083 96.703 M137.583 98.189 C 137.256 98.476,136.701 99.208,136.349 99.814 C 134.556 102.910,132.781 105.826,132.307 106.457 C 131.660 107.318,131.704 107.438,133.312 109.185 C 134.400 110.366,135.796 111.394,136.745 111.712 C 137.023 111.806,137.325 111.938,137.417 112.007 C 137.907 112.376,140.289 112.500,144.550 112.378 L 149.017 112.250 147.743 111.417 C 144.407 109.236,142.002 105.837,139.402 99.628 C 138.502 97.479,138.445 97.433,137.583 98.189 M274.542 104.509 C 273.969 104.686,273.535 105.372,272.912 107.083 C 272.746 107.542,272.528 108.022,272.430 108.151 C 272.185 108.469,272.196 111.384,272.443 111.683 C 272.549 111.811,272.787 112.347,272.972 112.874 C 273.156 113.400,273.426 113.950,273.571 114.095 C 273.856 114.379,273.817 114.418,274.079 113.582 C 274.122 113.443,274.042 112.562,273.902 111.623 C 273.655 109.977,273.692 108.833,273.993 108.833 C 274.072 108.833,274.612 108.982,275.193 109.165 C 275.775 109.347,276.704 109.497,277.259 109.498 C 278.091 109.500,278.507 109.616,279.638 110.163 L 281.009 110.826 280.504 111.825 C 279.620 113.578,279.897 116.069,280.856 114.981 C 283.492 111.991,283.105 106.937,280.124 105.414 C 278.516 104.592,275.732 104.141,274.542 104.509 M286.975 113.126 C 286.731 113.286,286.005 113.880,285.360 114.446 C 284.715 115.012,283.540 115.901,282.749 116.422 C 281.893 116.986,281.344 117.454,281.392 117.579 C 281.479 117.805,280.155 119.173,279.553 119.481 C 278.267 120.137,275.833 118.996,275.833 117.736 C 275.833 117.549,275.506 117.500,274.250 117.500 C 272.786 117.500,272.667 117.525,272.667 117.828 C 272.667 118.009,272.328 118.515,271.914 118.953 C 271.500 119.392,270.899 120.139,270.578 120.615 L 269.995 121.480 270.388 122.365 C 271.353 124.537,271.388 124.829,271.079 128.152 C 270.890 130.178,270.834 132.473,270.869 136.738 L 270.917 142.559 271.417 142.703 C 274.070 143.466,277.648 143.673,280.620 143.235 C 282.212 143.001,283.010 142.829,285.785 142.125 C 286.881 141.847,287.130 140.703,286.500 138.834 C 285.492 135.840,285.189 128.883,285.971 126.655 C 286.387 125.467,287.216 123.766,287.508 123.500 C 287.558 123.454,287.781 123.154,288.003 122.833 C 288.225 122.513,288.578 122.064,288.786 121.836 C 288.994 121.608,289.756 120.225,290.479 118.763 L 291.793 116.103 291.272 115.829 C 290.572 115.460,288.398 113.491,288.287 113.125 C 288.172 112.749,287.547 112.750,286.975 113.126 M110.333 172.989 C 108.562 173.529,107.333 174.653,107.333 175.736 C 107.333 176.611,105.883 177.140,104.565 176.745 C 103.838 176.528,103.745 178.583,104.451 179.238 C 105.893 180.575,108.453 179.628,111.124 176.769 C 113.170 174.581,113.310 173.471,111.603 172.982 C 111.014 172.813,110.910 172.813,110.333 172.989 M120.109 175.471 C 119.849 175.624,119.398 176.155,119.107 176.650 C 118.371 177.905,117.937 178.184,116.562 178.289 C 114.871 178.419,114.833 178.454,114.833 179.917 C 114.833 182.408,116.487 183.058,119.074 181.583 C 119.798 181.171,120.423 180.833,120.463 180.833 C 120.740 180.833,124.183 178.587,124.568 178.155 C 125.269 177.367,125.342 176.401,124.753 175.701 L 124.304 175.167 122.444 175.179 C 121.019 175.188,120.472 175.256,120.109 175.471 M274.603 180.125 C 274.013 181.284,273.139 181.982,271.841 182.331 C 269.403 182.988,270.158 185.784,272.783 185.821 C 273.909 185.837,275.971 184.702,276.917 183.546 C 277.008 183.434,277.414 183.169,277.819 182.957 C 279.045 182.315,279.063 182.149,278.142 180.066 L 277.818 179.333 276.412 179.333 L 275.006 179.333 274.603 180.125 M283.167 180.723 C 283.167 183.764,286.301 187.128,288.219 186.147 C 289.576 185.453,289.483 184.287,287.928 182.495 C 287.188 181.642,286.800 181.088,286.507 180.466 L 286.248 179.917 284.707 179.869 L 283.167 179.821 283.167 180.723 " stroke="none" fill="#7c14ac" fill-rule="evenodd"></path><path id="path3" d="M296.367 90.867 C 296.257 90.977,296.167 91.139,296.167 91.227 C 296.167 91.316,295.703 92.294,295.136 93.402 C 294.030 95.565,294.013 95.652,294.180 98.430 C 294.235 99.348,293.944 100.049,292.769 101.830 C 292.438 102.332,292.167 102.860,292.167 103.005 C 292.167 103.149,292.100 103.338,292.018 103.425 C 291.875 103.576,291.765 103.982,291.250 106.250 C 290.555 109.313,289.951 110.773,288.873 112.000 C 288.446 112.487,288.250 112.847,288.316 113.025 C 288.494 113.511,291.318 115.995,291.696 115.999 C 291.927 116.001,294.067 112.536,294.885 110.833 C 295.879 108.767,296.143 107.391,296.326 103.317 C 296.403 101.612,296.581 99.699,296.722 99.067 C 296.862 98.434,297.170 97.078,297.405 96.053 C 298.236 92.437,297.662 89.571,296.367 90.867 M140.748 92.929 C 140.474 93.056,139.879 93.429,139.426 93.757 C 138.630 94.333,138.418 94.372,137.640 94.086 C 137.494 94.032,137.275 94.332,137.003 94.960 C 135.933 97.438,133.398 100.234,130.760 101.846 C 129.954 102.339,129.259 102.832,129.217 102.942 C 129.070 103.326,126.445 104.928,123.526 106.417 C 119.606 108.415,119.719 108.160,121.345 111.306 C 122.025 112.621,122.625 113.724,122.679 113.758 C 122.806 113.836,125.690 112.067,126.229 111.580 C 126.332 111.487,126.806 111.134,127.283 110.796 C 127.759 110.457,128.321 110.034,128.533 109.855 C 128.744 109.677,129.441 109.092,130.081 108.557 C 130.722 108.021,131.364 107.471,131.508 107.333 C 132.116 106.756,133.636 104.445,135.114 101.855 C 137.134 98.315,137.246 98.175,138.649 97.437 C 140.806 96.304,141.500 95.410,141.500 93.766 C 141.500 92.704,141.421 92.615,140.748 92.929 M103.377 101.121 C 102.706 102.721,102.332 103.972,101.832 106.290 C 101.348 108.536,101.168 108.333,103.646 108.333 L 105.792 108.333 105.407 107.272 C 105.132 106.515,104.949 105.412,104.767 103.418 C 104.627 101.881,104.491 100.605,104.465 100.583 C 104.028 100.208,103.690 100.375,103.377 101.121 M114.000 102.156 C 113.407 102.337,112.136 102.993,111.792 103.295 C 111.583 103.479,111.500 103.802,111.500 104.430 C 111.500 106.644,109.824 108.517,107.583 108.808 L 106.750 108.917 106.750 110.639 C 106.750 113.335,107.933 113.874,110.777 112.475 C 112.102 111.822,112.106 111.814,111.681 110.911 C 111.480 110.482,111.333 109.834,111.333 109.372 L 111.333 108.575 112.014 108.639 C 113.639 108.794,114.337 107.822,114.924 104.583 C 115.384 102.048,115.277 101.766,114.000 102.156 M264.538 109.387 L 263.039 110.917 263.182 111.750 C 263.260 112.208,263.408 113.221,263.510 114.000 C 263.826 116.414,264.050 116.705,268.001 119.833 C 268.407 120.154,269.014 120.662,269.351 120.962 L 269.964 121.507 270.386 120.795 C 270.617 120.404,271.193 119.653,271.665 119.128 C 273.024 117.612,272.877 117.029,270.834 115.832 C 268.868 114.679,268.074 113.327,267.750 110.584 C 267.629 109.558,267.340 108.828,266.857 108.334 C 266.266 107.728,266.084 107.810,264.538 109.387 M273.833 109.875 C 273.833 110.356,273.918 111.358,274.022 112.101 C 274.149 113.009,274.157 113.610,274.047 113.934 C 273.895 114.382,273.953 114.492,274.858 115.464 C 275.711 116.381,275.833 116.596,275.833 117.181 C 275.833 119.809,279.270 120.471,280.971 118.171 L 281.352 117.655 280.926 116.754 C 280.692 116.259,280.500 115.774,280.500 115.677 C 280.500 115.580,280.350 115.350,280.167 115.167 C 279.635 114.635,279.709 113.270,280.333 112.083 C 280.608 111.561,280.833 111.046,280.833 110.939 C 280.833 110.537,278.097 109.500,277.034 109.500 C 276.488 109.500,275.723 109.388,275.333 109.250 C 274.025 108.788,273.833 108.868,273.833 109.875 " stroke="none" fill="#e2897d" fill-rule="evenodd"></path><path id="path4" d="M297.872 93.000 C 297.872 93.321,297.906 93.452,297.948 93.292 C 297.990 93.131,297.990 92.869,297.948 92.708 C 297.906 92.548,297.872 92.679,297.872 93.000 M264.911 108.875 L 263.917 109.917 264.958 108.922 C 265.531 108.375,266.000 107.906,266.000 107.880 C 266.000 107.757,265.836 107.907,264.911 108.875 M102.208 108.456 C 102.644 108.490,103.356 108.490,103.792 108.456 C 104.227 108.422,103.871 108.393,103.000 108.393 C 102.129 108.393,101.773 108.422,102.208 108.456 M273.709 109.917 C 273.711 110.283,273.745 110.414,273.785 110.206 C 273.824 109.999,273.823 109.699,273.781 109.540 C 273.739 109.380,273.707 109.550,273.709 109.917 M106.542 111.083 C 106.544 111.450,106.578 111.580,106.618 111.373 C 106.658 111.166,106.656 110.866,106.615 110.706 C 106.573 110.547,106.540 110.717,106.542 111.083 M279.885 113.917 C 279.886 114.467,279.917 114.672,279.954 114.372 C 279.991 114.072,279.990 113.622,279.952 113.372 C 279.914 113.122,279.884 113.367,279.885 113.917 M289.750 114.667 C 290.108 115.033,290.438 115.333,290.484 115.333 C 290.530 115.333,290.275 115.033,289.917 114.667 C 289.559 114.300,289.228 114.000,289.182 114.000 C 289.137 114.000,289.392 114.300,289.750 114.667 M109.042 136.955 C 109.385 136.991,109.948 136.991,110.292 136.955 C 110.635 136.919,110.354 136.889,109.667 136.889 C 108.979 136.889,108.698 136.919,109.042 136.955 M106.740 176.375 L 106.250 176.917 106.792 176.427 C 107.297 175.971,107.410 175.833,107.281 175.833 C 107.252 175.833,107.009 176.077,106.740 176.375 " stroke="none" fill="#a13f96" fill-rule="evenodd"></path></g></svg>