<svg id="svg" version="1.1" xmlns="http://www.w3.org/2000/svg" xmlns:xlink="http://www.w3.org/1999/xlink" width="400" height="168.08888888888887" viewBox="0, 0, 400,168.08888888888887"><g id="svgg"><path id="path0" d="M316.423 0.431 C 315.904 1.223,315.179 1.387,313.225 1.156 C 306.986 0.416,304.080 1.923,301.150 7.417 C 300.954 7.783,300.700 8.196,300.584 8.333 C 300.469 8.471,300.194 8.921,299.975 9.333 C 299.755 9.746,299.456 10.271,299.311 10.500 C 299.165 10.729,298.275 12.229,297.333 13.833 C 296.391 15.438,295.501 16.938,295.355 17.167 C 294.848 17.960,292.682 21.589,292.007 22.774 C 290.821 24.859,290.334 25.164,287.167 25.812 C 285.556 26.141,281.721 27.258,281.417 27.487 C 281.325 27.556,280.800 27.789,280.250 28.005 C 277.337 29.148,272.937 31.912,270.243 34.293 C 268.438 35.888,266.503 37.986,266.607 38.236 C 266.683 38.419,268.709 39.800,269.824 40.427 C 270.159 40.616,272.868 42.426,275.842 44.450 C 288.012 52.729,293.710 56.267,299.957 59.421 C 301.629 60.266,303.091 61.032,303.207 61.124 C 303.795 61.593,309.764 63.664,310.535 63.666 C 310.600 63.666,310.733 63.371,310.831 63.009 C 310.928 62.647,311.199 61.766,311.433 61.051 C 311.666 60.335,312.039 58.676,312.262 57.364 C 312.484 56.051,312.705 54.814,312.752 54.614 C 313.530 51.325,312.846 45.112,311.323 41.643 C 311.054 41.030,310.833 40.471,310.833 40.402 C 310.833 40.332,310.454 39.512,309.990 38.578 C 309.239 37.069,308.529 33.874,308.877 33.573 C 308.899 33.554,309.779 33.726,310.833 33.954 C 311.887 34.182,313.425 34.425,314.250 34.492 C 316.030 34.638,317.414 35.298,319.417 36.959 C 319.508 37.035,319.958 37.352,320.417 37.664 C 320.875 37.975,322.262 38.952,323.500 39.835 C 324.737 40.717,327.587 42.739,329.833 44.328 C 332.079 45.917,334.217 47.433,334.583 47.698 C 334.950 47.962,335.887 48.625,336.667 49.169 C 337.446 49.714,338.175 50.238,338.288 50.333 C 338.401 50.429,338.851 50.746,339.288 51.039 C 339.725 51.332,340.533 51.895,341.083 52.290 C 341.633 52.686,342.233 53.113,342.417 53.241 C 342.600 53.368,343.613 54.089,344.667 54.841 C 345.721 55.594,346.846 56.384,347.167 56.596 C 347.488 56.808,348.387 57.446,349.167 58.014 C 349.946 58.582,350.846 59.222,351.167 59.437 C 351.488 59.652,352.162 60.129,352.667 60.497 C 353.171 60.865,353.996 61.445,354.500 61.785 C 355.004 62.126,355.454 62.451,355.500 62.507 C 355.546 62.563,356.064 62.940,356.651 63.346 C 357.237 63.751,358.033 64.308,358.419 64.583 C 358.804 64.858,359.809 65.571,360.652 66.167 C 363.015 67.836,370.013 72.793,370.667 73.260 C 370.988 73.489,371.887 74.120,372.667 74.663 C 373.446 75.206,374.346 75.845,374.667 76.083 C 374.988 76.321,375.887 76.961,376.667 77.505 C 377.446 78.049,378.158 78.554,378.250 78.629 C 378.342 78.703,378.792 79.020,379.250 79.332 C 381.512 80.875,382.084 81.852,381.596 83.342 C 381.387 83.981,364.070 116.670,356.746 130.250 C 355.923 131.777,355.457 132.373,354.703 132.870 C 354.362 133.094,353.648 133.568,353.117 133.923 C 350.399 135.734,349.358 140.306,351.173 142.460 C 353.571 145.305,353.664 145.753,353.665 154.458 L 353.667 161.000 335.250 161.000 L 316.833 161.000 316.833 163.500 L 316.833 166.000 356.667 166.000 L 396.500 166.000 396.500 163.484 L 396.500 160.969 378.776 161.020 C 362.205 161.068,361.023 161.053,360.611 160.784 C 359.559 160.094,359.580 160.264,359.618 152.881 C 359.656 145.254,359.631 145.414,361.072 143.810 C 362.505 142.217,362.749 141.460,362.758 138.583 C 362.766 135.945,362.867 135.177,363.296 134.502 C 363.441 134.274,363.930 133.374,364.382 132.502 C 364.834 131.630,365.526 130.317,365.918 129.583 C 366.310 128.850,371.449 119.212,377.337 108.167 C 389.867 84.662,388.402 87.106,390.550 86.121 C 394.419 84.347,395.319 78.791,392.221 75.808 C 390.834 74.473,389.925 74.125,387.500 74.001 C 385.283 73.888,384.806 73.746,383.583 72.836 C 383.217 72.563,382.317 71.924,381.583 71.416 C 380.850 70.908,379.837 70.195,379.333 69.830 C 378.829 69.466,378.004 68.889,377.500 68.548 C 376.996 68.207,376.546 67.882,376.500 67.827 C 376.454 67.771,375.967 67.414,375.417 67.034 C 374.867 66.654,374.117 66.130,373.750 65.870 C 373.383 65.610,372.071 64.682,370.833 63.808 C 369.596 62.934,367.383 61.367,365.917 60.325 C 364.450 59.284,362.837 58.148,362.333 57.801 C 361.538 57.253,358.957 55.434,357.417 54.336 C 357.142 54.140,356.242 53.499,355.417 52.912 C 354.592 52.325,353.840 51.780,353.746 51.701 C 353.652 51.621,353.352 51.413,353.079 51.238 C 352.806 51.063,351.782 50.343,350.802 49.638 C 349.823 48.933,348.872 48.277,348.690 48.179 C 348.508 48.082,348.260 47.904,348.138 47.784 C 348.016 47.663,347.434 47.232,346.843 46.824 C 346.253 46.417,345.458 45.858,345.076 45.583 C 344.073 44.861,340.266 42.170,339.417 41.583 C 338.588 41.010,335.223 38.613,334.802 38.295 C 334.648 38.179,333.501 37.371,332.255 36.500 C 331.008 35.629,329.098 34.279,328.010 33.500 C 326.923 32.721,325.603 31.783,325.078 31.417 C 320.549 28.253,320.565 28.267,320.243 27.167 C 320.096 26.662,319.901 26.009,319.810 25.714 C 319.559 24.901,318.275 23.351,317.249 22.623 C 316.746 22.266,316.333 21.951,316.333 21.923 C 316.333 21.798,319.244 16.389,319.431 16.167 C 319.547 16.029,319.924 15.242,320.269 14.417 C 321.792 10.778,320.891 6.770,317.864 3.716 C 317.165 3.010,316.781 1.888,316.898 0.890 C 317.013 -0.085,316.858 -0.234,316.423 0.431 M321.336 31.086 C 321.930 31.500,322.792 32.098,323.250 32.414 C 323.959 32.903,324.995 33.635,328.083 35.829 C 328.358 36.025,329.221 36.647,330.000 37.213 C 330.779 37.778,331.799 38.506,332.267 38.829 C 332.735 39.152,334.074 40.092,335.243 40.917 C 336.412 41.742,337.531 42.529,337.730 42.667 C 338.092 42.917,340.756 44.808,342.074 45.750 C 342.458 46.025,343.705 46.904,344.845 47.704 C 345.984 48.503,347.592 49.643,348.417 50.236 C 350.042 51.406,350.556 51.771,353.583 53.904 C 354.683 54.679,355.987 55.599,356.480 55.949 C 358.614 57.461,359.615 58.169,360.083 58.500 C 360.358 58.694,361.080 59.205,361.687 59.635 C 362.294 60.065,363.194 60.701,363.687 61.049 C 364.180 61.397,365.500 62.334,366.621 63.132 C 370.393 65.818,373.350 67.915,373.723 68.167 C 373.926 68.304,374.830 68.942,375.731 69.583 C 377.923 71.144,378.612 71.628,379.771 72.416 C 380.310 72.783,380.787 73.126,380.833 73.179 C 380.879 73.232,381.367 73.586,381.917 73.966 C 383.196 74.850,383.500 75.094,383.500 75.233 C 383.500 75.319,381.660 78.163,381.401 78.477 C 381.349 78.540,381.074 78.351,376.583 75.164 C 375.117 74.124,373.531 73.005,373.059 72.678 C 372.587 72.351,371.462 71.556,370.559 70.911 C 369.656 70.267,368.729 69.613,368.500 69.459 C 367.805 68.993,364.595 66.700,364.412 66.540 C 364.318 66.457,364.018 66.247,363.746 66.072 C 363.473 65.898,362.462 65.187,361.500 64.494 C 360.537 63.800,359.591 63.124,359.397 62.991 C 358.954 62.688,356.833 61.195,355.812 60.467 C 353.836 59.057,351.725 57.560,351.392 57.333 C 351.190 57.196,350.138 56.450,349.054 55.677 C 347.970 54.903,346.671 53.986,346.167 53.638 C 345.662 53.290,344.462 52.442,343.500 51.753 C 342.537 51.065,341.600 50.394,341.417 50.263 C 340.534 49.632,336.868 47.050,336.500 46.800 C 336.271 46.644,335.446 46.053,334.667 45.485 C 333.887 44.918,332.987 44.280,332.667 44.067 C 332.174 43.741,329.983 42.196,328.083 40.834 C 326.757 39.884,323.318 37.439,322.520 36.879 C 321.663 36.277,320.303 35.313,318.648 34.132 L 317.879 33.583 318.981 31.962 C 320.277 30.055,320.002 30.157,321.336 31.086 M63.764 37.843 C 60.771 38.344,58.166 40.494,56.976 43.443 L 56.583 44.417 56.540 80.529 L 56.496 116.642 57.956 116.696 C 58.760 116.726,94.573 116.730,137.542 116.705 L 215.667 116.660 215.667 96.747 L 215.667 76.833 192.261 76.833 L 168.856 76.833 166.803 78.056 C 165.674 78.729,161.825 81.064,158.250 83.246 C 138.268 95.440,138.367 95.382,138.088 95.275 C 137.864 95.189,137.833 94.072,137.833 86.011 L 137.833 76.846 130.042 76.798 L 122.250 76.750 121.230 76.217 C 120.096 75.624,119.066 74.560,118.474 73.369 L 118.083 72.583 118.039 55.125 L 117.994 37.667 91.289 37.686 C 76.601 37.697,64.214 37.768,63.764 37.843 M183.056 48.667 C 183.056 49.354,183.085 49.635,183.121 49.292 C 183.157 48.948,183.157 48.385,183.121 48.042 C 183.085 47.698,183.056 47.979,183.056 48.667 M265.375 56.348 C 265.039 56.700,265.115 57.627,265.496 57.831 C 265.703 57.942,266.986 57.991,268.954 57.962 L 272.083 57.917 272.134 57.229 C 272.173 56.693,272.118 56.516,271.884 56.423 C 271.268 56.179,265.599 56.114,265.375 56.348 M105.631 56.975 C 105.789 57.074,105.833 57.554,105.798 58.764 L 105.750 60.417 82.768 60.459 C 65.921 60.490,59.725 60.451,59.559 60.314 C 59.264 60.068,59.242 57.325,59.533 57.033 C 59.768 56.799,105.263 56.741,105.631 56.975 M271.745 63.916 C 269.180 65.844,268.989 66.075,269.419 66.730 C 269.887 67.445,270.296 67.280,272.890 65.331 C 275.394 63.449,275.562 63.239,275.161 62.489 C 274.806 61.825,274.180 62.087,271.745 63.916 M280.539 66.294 C 280.223 66.610,278.327 71.681,278.331 72.199 C 278.336 72.776,279.226 73.158,279.715 72.792 C 279.993 72.583,282.000 67.334,282.000 66.815 C 282.000 66.201,280.992 65.841,280.539 66.294 M78.800 76.367 C 79.092 76.659,79.069 79.402,78.773 79.648 C 78.609 79.784,76.145 79.824,69.898 79.793 L 61.250 79.750 61.202 78.179 C 61.175 77.315,61.192 76.509,61.238 76.388 C 61.356 76.080,78.493 76.059,78.800 76.367 M384.541 85.850 C 385.389 86.317,386.168 86.786,386.272 86.891 C 386.413 87.035,385.016 89.789,380.719 97.833 C 377.561 103.746,374.479 109.521,373.871 110.667 C 373.263 111.813,372.461 113.320,372.091 114.018 C 370.629 116.766,369.998 117.968,369.387 119.167 C 369.037 119.854,368.705 120.454,368.650 120.500 C 368.594 120.546,368.286 121.108,367.964 121.750 C 367.643 122.392,367.155 123.329,366.882 123.833 C 366.608 124.337,366.006 125.462,365.545 126.333 C 364.521 128.266,363.506 130.173,362.617 131.833 C 362.249 132.521,361.808 133.365,361.637 133.708 C 361.466 134.052,361.267 134.333,361.195 134.333 C 361.077 134.333,357.821 132.710,357.704 132.593 C 357.677 132.566,358.130 131.652,358.711 130.563 C 359.291 129.474,359.950 128.208,360.175 127.750 C 360.400 127.292,360.627 126.879,360.681 126.833 C 360.734 126.787,361.290 125.775,361.915 124.583 C 363.487 121.587,365.227 118.316,366.613 115.750 C 367.009 115.017,367.643 113.817,368.023 113.083 C 368.402 112.350,369.037 111.150,369.434 110.417 C 369.831 109.683,370.333 108.746,370.549 108.333 C 370.766 107.921,371.245 107.021,371.615 106.333 C 371.985 105.646,372.763 104.183,373.345 103.083 C 373.926 101.983,374.606 100.708,374.855 100.250 C 375.319 99.394,376.100 97.923,377.331 95.583 C 377.717 94.850,378.359 93.650,378.759 92.917 C 379.158 92.183,379.662 91.246,379.878 90.833 C 380.095 90.421,380.751 89.183,381.335 88.083 C 381.920 86.983,382.512 85.840,382.651 85.542 C 382.957 84.883,382.714 84.843,384.541 85.850 M208.800 85.367 C 209.009 85.575,209.086 88.082,208.899 88.570 C 208.744 88.974,162.756 88.974,162.601 88.570 C 162.414 88.082,162.491 85.575,162.700 85.367 C 162.991 85.076,208.509 85.076,208.800 85.367 M105.750 97.333 L 105.750 99.083 82.768 99.126 C 65.921 99.157,59.725 99.118,59.559 98.980 C 59.263 98.734,59.242 95.991,59.534 95.699 C 59.689 95.545,64.985 95.508,82.742 95.541 L 105.750 95.583 105.750 97.333 M150.066 100.930 C 150.272 101.469,150.175 103.952,149.939 104.148 C 149.775 104.284,147.312 104.324,141.064 104.293 L 132.417 104.250 132.368 102.679 C 132.342 101.815,132.358 101.009,132.405 100.888 C 132.545 100.523,149.925 100.565,150.066 100.930 M24.400 149.250 C 24.400 150.625,24.426 151.165,24.457 150.451 C 24.489 149.736,24.488 148.611,24.457 147.951 C 24.425 147.290,24.400 147.875,24.400 149.250 M213.167 156.250 C 213.478 156.571,213.770 156.833,213.815 156.833 C 213.861 156.833,213.644 156.571,213.333 156.250 C 213.022 155.929,212.730 155.667,212.685 155.667 C 212.639 155.667,212.856 155.929,213.167 156.250 M104.906 159.917 C 104.905 162.208,104.929 163.169,104.958 162.051 C 104.987 160.934,104.987 159.059,104.958 157.885 C 104.929 156.711,104.906 157.625,104.906 159.917 M167.739 159.917 C 167.739 162.208,167.762 163.169,167.791 162.051 C 167.820 160.934,167.820 159.059,167.791 157.885 C 167.763 156.711,167.739 157.625,167.739 159.917 M24.366 157.947 C 24.334 159.297,24.329 159.312,23.875 159.381 L 23.417 159.450 23.880 159.475 C 24.467 159.507,24.529 159.331,24.458 157.818 L 24.400 156.583 24.366 157.947 M256.888 163.958 C 263.381 163.982,273.956 163.982,280.388 163.958 C 286.820 163.934,281.508 163.914,268.583 163.914 C 255.658 163.914,250.395 163.934,256.888 163.958 " stroke="none" fill="#7b14ab" fill-rule="evenodd"></path><path id="path1" d="M122.167 10.823 C 121.707 10.965,120.831 11.426,120.125 11.898 C 119.423 12.368,118.587 13.633,118.191 14.824 C 117.841 15.874,117.833 16.121,117.833 25.866 L 117.833 35.833 90.875 35.836 C 67.828 35.839,63.747 35.875,62.750 36.084 C 59.116 36.845,55.749 40.134,54.815 43.833 C 54.620 44.604,54.583 51.520,54.583 87.167 C 54.583 133.976,54.496 130.323,55.676 132.667 C 56.766 134.834,58.218 136.306,60.268 137.323 C 62.799 138.578,60.587 138.495,91.542 138.498 C 106.827 138.499,119.333 138.525,119.333 138.556 C 119.333 138.676,117.001 144.215,116.585 145.083 C 116.453 145.358,115.888 146.671,115.330 148.000 C 114.771 149.329,114.095 150.904,113.827 151.500 L 113.341 152.583 109.295 152.667 C 104.739 152.761,104.627 152.788,103.643 154.030 L 103.083 154.736 103.034 159.368 L 102.985 164.000 85.076 164.000 L 67.167 164.000 67.167 165.000 L 67.167 166.000 187.167 166.000 L 307.167 166.000 307.167 165.000 L 307.167 164.000 300.685 164.000 L 294.203 164.000 293.829 163.208 C 290.661 156.513,290.661 148.829,293.829 145.371 C 294.554 144.581,295.172 143.541,295.072 143.280 C 294.972 143.019,293.222 143.000,269.727 143.000 L 244.489 143.000 243.362 143.743 C 241.788 144.780,239.834 146.480,238.975 147.560 C 237.707 149.155,237.647 149.238,237.321 149.867 C 234.969 154.406,235.790 158.173,240.050 162.376 L 241.698 164.002 230.224 163.959 L 218.750 163.917 218.638 162.898 C 217.967 156.817,212.563 151.568,206.194 150.811 C 202.932 150.424,196.842 150.701,194.917 151.324 C 189.375 153.120,185.538 157.608,184.900 163.042 L 184.787 164.000 177.227 164.000 L 169.667 164.000 169.666 159.792 C 169.664 152.814,169.633 152.779,163.320 152.696 L 159.223 152.642 158.917 151.779 C 158.748 151.305,158.406 150.467,158.156 149.917 C 157.906 149.367,157.273 147.904,156.749 146.667 C 156.225 145.429,155.590 143.967,155.337 143.417 C 155.085 142.867,154.820 142.230,154.749 142.003 C 154.678 141.775,154.378 141.063,154.082 140.420 C 153.786 139.776,153.492 139.081,153.428 138.875 L 153.311 138.500 180.864 138.498 C 204.689 138.495,208.559 138.461,209.470 138.247 C 213.080 137.396,216.169 134.426,217.270 130.750 C 217.552 129.809,217.573 128.185,217.624 103.375 L 217.677 77.000 221.547 76.999 C 227.977 76.997,229.795 76.276,231.016 73.245 L 231.417 72.250 231.460 44.086 C 231.504 15.962,231.503 15.921,231.157 14.850 C 230.646 13.268,229.250 11.500,228.511 11.500 C 228.413 11.500,228.333 11.436,228.333 11.359 C 228.333 11.281,227.950 11.093,227.481 10.942 C 226.562 10.645,123.125 10.529,122.167 10.823 M227.266 12.949 C 228.060 13.374,228.944 14.325,229.271 15.108 C 229.623 15.951,229.612 71.577,229.259 72.422 C 228.851 73.397,228.179 74.131,227.287 74.575 L 226.435 75.000 197.481 75.000 L 168.528 75.000 167.427 75.584 C 166.822 75.905,164.997 76.982,163.372 77.976 C 161.746 78.971,158.842 80.743,156.917 81.914 C 154.992 83.085,152.742 84.459,151.917 84.967 C 151.092 85.475,149.404 86.503,148.167 87.253 C 146.929 88.002,144.545 89.451,142.869 90.474 C 141.193 91.497,139.786 92.333,139.744 92.333 C 139.701 92.333,139.667 88.583,139.667 84.000 C 139.667 75.889,139.658 75.658,139.333 75.333 C 139.009 75.009,138.775 75.000,130.958 74.996 C 121.437 74.992,121.248 74.950,120.150 72.583 C 119.641 71.487,119.670 16.126,120.180 15.000 C 120.720 13.808,121.597 13.033,122.832 12.655 C 123.062 12.585,146.500 12.540,174.917 12.555 L 226.583 12.583 227.266 12.949 M154.216 22.208 C 154.129 22.323,153.923 22.792,153.758 23.250 C 152.375 27.106,149.083 30.531,145.667 31.669 C 144.171 32.168,143.708 32.808,144.367 33.467 C 144.986 34.086,147.946 32.985,150.149 31.317 C 150.746 30.864,151.005 30.739,150.922 30.943 C 149.344 34.804,154.797 37.651,157.102 34.169 C 158.890 31.466,155.965 27.841,152.928 28.996 C 152.384 29.202,152.378 29.223,153.162 28.172 C 154.727 26.076,156.011 23.046,155.601 22.420 C 155.300 21.961,154.497 21.838,154.216 22.208 M193.762 22.262 C 193.109 22.915,194.286 26.089,195.929 28.105 L 196.490 28.794 195.498 28.866 C 192.186 29.105,191.189 33.824,194.135 35.315 C 196.593 36.559,199.063 35.162,199.321 32.381 L 199.417 31.346 200.250 31.872 C 202.237 33.125,204.532 33.901,204.967 33.467 C 205.554 32.880,205.160 32.124,204.037 31.681 C 199.766 29.998,196.653 27.014,195.501 23.500 C 195.028 22.059,194.407 21.617,193.762 22.262 M172.201 37.743 C 167.432 38.829,164.008 43.114,164.005 48.000 C 164.004 49.723,164.065 49.833,165.019 49.833 L 165.833 49.833 165.833 48.288 C 165.833 41.445,172.624 37.228,178.568 40.380 C 181.326 41.843,182.891 44.497,183.110 48.083 L 183.217 49.833 184.025 49.833 L 184.833 49.833 184.833 48.118 C 184.833 41.311,178.690 36.265,172.201 37.743 M118.039 55.125 L 118.083 72.583 118.474 73.369 C 119.066 74.560,120.096 75.624,121.230 76.217 L 122.250 76.750 130.042 76.798 L 137.833 76.846 137.833 86.011 C 137.833 94.072,137.864 95.189,138.088 95.275 C 138.367 95.382,138.268 95.440,158.250 83.246 C 161.825 81.064,165.674 78.729,166.803 78.056 L 168.856 76.833 192.261 76.833 L 215.667 76.833 215.667 96.750 L 215.667 116.667 138.917 116.667 L 62.167 116.667 62.167 117.667 L 62.167 118.667 138.929 118.667 L 215.691 118.667 215.623 124.125 C 215.556 129.558,215.554 129.589,215.115 130.706 C 213.991 133.567,212.004 135.404,209.141 136.229 C 207.575 136.680,64.174 136.634,62.824 136.182 C 60.449 135.387,58.505 133.804,57.512 131.857 C 56.624 130.117,56.500 129.117,56.500 123.712 L 56.500 118.667 57.833 118.667 L 59.167 118.667 59.167 117.667 L 59.167 116.667 57.831 116.667 L 56.496 116.667 56.540 80.542 L 56.583 44.417 56.976 43.443 C 58.166 40.494,60.771 38.344,63.764 37.843 C 64.214 37.768,76.601 37.697,91.289 37.686 L 117.994 37.667 118.039 55.125 M39.885 117.042 C 39.811 117.156,39.661 117.587,39.553 118.000 C 39.233 119.220,38.065 123.899,37.432 126.500 C 36.425 130.634,36.346 130.845,35.845 130.707 C 35.609 130.643,34.281 130.589,32.894 130.587 L 30.371 130.583 30.195 129.917 C 29.655 127.857,28.800 124.871,28.670 124.583 C 28.586 124.400,28.248 123.275,27.919 122.083 C 27.589 120.892,27.225 119.584,27.110 119.177 C 26.697 117.718,23.399 116.607,21.854 117.406 C 19.859 118.438,19.438 120.304,20.549 123.190 C 20.774 123.773,21.577 126.050,22.334 128.250 C 23.091 130.450,23.739 132.325,23.773 132.417 C 23.807 132.508,23.500 132.721,23.091 132.889 C 22.682 133.057,21.932 133.469,21.426 133.805 L 20.504 134.417 20.502 149.208 L 20.500 164.000 12.000 164.000 L 3.500 164.000 3.500 165.000 L 3.500 166.000 33.667 166.000 L 63.833 166.000 63.833 165.000 L 63.833 164.000 54.667 164.000 L 45.500 164.000 45.500 149.169 L 45.500 134.338 44.792 133.889 C 43.592 133.130,41.079 132.021,39.555 131.580 C 38.757 131.348,38.084 131.140,38.061 131.116 C 38.022 131.077,40.079 122.524,40.514 120.917 C 41.211 118.340,41.383 117.343,41.173 117.091 C 40.916 116.782,40.074 116.750,39.885 117.042 M24.512 119.125 C 25.341 119.545,25.442 119.660,25.724 120.500 C 26.172 121.838,28.663 130.607,28.665 130.856 C 28.667 130.954,25.794 131.744,25.424 131.748 C 25.336 131.749,25.170 131.412,25.054 131.000 C 24.939 130.587,24.776 130.135,24.693 129.994 C 24.610 129.854,24.338 129.066,24.089 128.244 C 23.840 127.422,23.540 126.525,23.421 126.250 C 22.700 124.572,21.480 120.602,21.573 120.233 C 21.916 118.865,23.110 118.415,24.512 119.125 M135.150 122.007 C 130.782 122.719,130.010 128.813,134.033 130.824 C 135.478 131.546,136.697 131.536,138.155 130.792 C 143.061 128.286,140.609 121.117,135.150 122.007 M136.859 124.004 C 137.207 124.101,137.714 124.446,138.044 124.811 C 140.313 127.323,136.821 130.811,134.309 128.542 C 132.176 126.614,134.076 123.231,136.859 124.004 M241.111 130.111 C 240.880 130.342,241.039 130.523,242.458 131.647 C 246.596 134.921,246.551 138.138,242.328 141.097 C 239.842 142.839,236.872 142.667,269.375 142.666 C 297.310 142.665,297.758 142.660,298.288 142.337 C 301.256 140.528,302.642 136.636,301.317 133.833 C 300.844 132.833,298.903 130.631,298.153 130.243 C 297.657 129.986,241.366 129.856,241.111 130.111 M298.147 132.792 C 300.609 135.266,300.609 137.629,298.146 139.909 L 297.148 140.833 271.413 140.833 L 245.679 140.833 246.327 139.792 C 247.904 137.256,247.816 134.703,246.074 132.419 L 245.627 131.833 271.410 131.833 L 297.193 131.833 298.147 132.792 M36.680 132.765 C 38.372 133.083,40.614 133.855,42.292 134.697 L 43.667 135.388 43.667 138.444 L 43.667 141.500 33.083 141.500 L 22.500 141.500 22.500 138.435 L 22.500 135.370 23.792 134.704 C 27.912 132.576,32.221 131.928,36.680 132.765 M154.179 145.556 C 155.822 149.391,157.167 152.597,157.167 152.681 C 157.167 152.772,148.805 152.833,136.333 152.833 C 123.674 152.833,115.500 152.773,115.500 152.679 C 115.500 152.594,116.783 149.538,118.352 145.887 C 119.920 142.237,121.268 139.081,121.348 138.874 L 121.492 138.498 136.342 138.541 L 151.191 138.583 154.179 145.556 M43.667 153.667 L 43.667 164.000 33.083 164.000 L 22.500 164.000 22.500 153.667 L 22.500 143.333 33.083 143.333 L 43.667 143.333 43.667 153.667 M291.667 145.130 C 291.667 145.201,291.563 145.407,291.436 145.588 C 288.863 149.261,288.938 156.939,291.605 162.979 C 291.822 163.472,292.000 163.903,292.000 163.937 C 292.000 163.972,281.480 164.000,268.623 164.000 L 245.246 164.000 244.331 163.389 C 236.140 157.912,235.987 151.210,243.927 145.703 L 244.917 145.017 268.292 145.008 C 281.148 145.004,291.667 145.058,291.667 145.130 M23.333 149.333 L 23.333 151.833 23.833 151.833 L 24.333 151.833 24.333 149.333 L 24.333 146.833 23.833 146.833 L 23.333 146.833 23.333 149.333 M207.206 152.910 C 212.079 153.943,216.833 159.227,216.833 163.610 L 216.833 164.000 201.750 164.000 C 189.080 164.000,186.667 163.963,186.667 163.771 C 186.667 160.210,190.151 155.411,193.963 153.721 C 196.349 152.664,203.869 152.203,207.206 152.910 M167.160 154.830 C 167.731 155.136,167.833 155.923,167.833 160.025 L 167.833 164.000 136.333 164.000 L 104.833 164.000 104.833 160.011 C 104.833 155.994,104.920 155.282,105.456 154.875 C 105.805 154.610,166.666 154.565,167.160 154.830 M23.333 157.917 L 23.333 159.333 23.833 159.333 L 24.333 159.333 24.333 157.917 L 24.333 156.500 23.833 156.500 L 23.333 156.500 23.333 157.917 " stroke="none" fill="#040404" fill-rule="evenodd"></path><path id="path2" d="M123.167 12.656 C 121.730 12.946,120.482 14.044,120.090 15.362 C 119.863 16.126,119.833 19.445,119.833 43.750 C 119.833 74.103,119.773 72.350,120.866 73.596 C 122.059 74.953,121.708 74.905,131.167 75.007 C 135.796 75.057,139.601 75.114,139.624 75.132 C 139.646 75.151,139.683 79.022,139.707 83.734 L 139.750 92.300 141.583 91.187 C 148.394 87.051,157.745 81.356,158.583 80.833 C 161.016 79.317,165.699 76.479,166.933 75.772 L 168.283 75.000 197.068 75.000 C 217.512 75.000,226.064 74.947,226.583 74.816 C 227.477 74.591,228.552 73.700,229.047 72.774 L 229.417 72.083 229.417 43.829 L 229.417 15.574 228.994 14.752 C 228.457 13.709,227.347 12.891,226.165 12.666 C 225.154 12.475,124.116 12.464,123.167 12.656 M155.642 22.222 C 156.189 22.660,154.722 26.261,153.167 28.299 C 152.674 28.945,152.589 29.131,152.850 28.991 C 155.977 27.318,159.254 32.031,156.781 34.645 C 154.485 37.074,150.750 35.617,150.750 32.292 C 150.750 31.582,150.728 31.001,150.701 31.000 C 150.674 31.000,150.257 31.298,149.774 31.663 C 148.077 32.944,145.206 34.045,144.520 33.677 C 143.521 33.143,143.963 32.147,145.393 31.710 C 148.703 30.700,151.717 27.765,153.376 23.935 C 154.261 21.894,154.762 21.515,155.642 22.222 M195.029 22.276 C 195.196 22.428,195.333 22.642,195.333 22.753 C 195.333 25.161,199.109 29.307,202.926 31.091 C 205.130 32.120,205.039 32.070,205.222 32.360 C 205.733 33.171,204.755 33.971,203.713 33.595 C 202.509 33.160,200.820 32.340,200.079 31.830 L 199.333 31.317 199.333 32.299 C 199.333 35.368,195.776 36.953,193.500 34.897 C 191.227 32.843,192.542 28.926,195.549 28.795 L 196.299 28.762 195.586 27.756 C 194.089 25.644,193.127 23.090,193.572 22.411 C 193.889 21.926,194.572 21.863,195.029 22.276 M176.961 37.738 C 182.003 39.080,185.534 44.032,184.925 48.907 L 184.809 49.833 183.905 49.833 L 183.000 49.833 183.000 48.368 C 183.000 44.743,181.312 41.844,178.332 40.353 C 172.384 37.376,165.833 41.621,165.833 48.452 L 165.833 49.833 164.917 49.833 L 164.000 49.833 164.000 48.009 C 164.000 41.183,170.514 36.021,176.961 37.738 M269.804 40.883 C 269.682 41.002,269.208 41.356,268.750 41.670 C 257.226 49.557,257.412 68.991,269.083 76.597 C 269.633 76.956,270.121 77.296,270.167 77.354 C 270.442 77.700,273.905 79.231,275.513 79.717 C 288.106 83.529,301.571 74.876,303.087 61.999 L 303.195 61.082 300.722 59.882 C 295.021 57.116,288.384 53.013,275.803 44.476 C 272.715 42.381,270.152 40.667,270.106 40.667 C 270.061 40.667,269.925 40.764,269.804 40.883 M272.000 56.500 C 273.226 57.726,272.202 58.217,268.694 58.084 C 264.925 57.942,264.584 57.797,265.142 56.571 L 265.326 56.167 268.496 56.167 C 271.444 56.167,271.690 56.190,272.000 56.500 M274.963 62.259 C 275.918 62.929,275.579 63.396,272.437 65.735 C 270.027 67.530,270.198 67.454,269.606 66.988 C 268.669 66.251,268.855 65.995,272.063 63.601 C 274.365 61.884,274.402 61.867,274.963 62.259 M281.630 66.259 C 282.163 66.633,282.110 66.946,280.993 69.994 C 279.850 73.115,279.649 73.359,278.656 72.827 C 278.147 72.555,278.255 71.898,279.276 69.077 C 280.428 65.893,280.678 65.593,281.630 66.259 " stroke="none" fill="#fbf3a3" fill-rule="evenodd"></path><path id="path3" d="M198.333 28.083 C 198.644 28.404,198.936 28.667,198.982 28.667 C 199.028 28.667,198.811 28.404,198.500 28.083 C 198.189 27.762,197.897 27.500,197.851 27.500 C 197.805 27.500,198.022 27.762,198.333 28.083 M181.333 40.052 C 181.333 40.081,181.577 40.325,181.875 40.594 L 182.417 41.083 181.927 40.542 C 181.471 40.037,181.333 39.923,181.333 40.052 M184.888 47.917 C 184.889 48.558,184.919 48.800,184.955 48.455 C 184.991 48.109,184.990 47.584,184.954 47.288 C 184.917 46.992,184.887 47.275,184.888 47.917 M270.544 56.286 C 270.797 56.325,271.172 56.324,271.377 56.284 C 271.582 56.244,271.375 56.213,270.917 56.214 C 270.458 56.216,270.291 56.248,270.544 56.286 M59.533 57.033 C 59.242 57.325,59.264 60.068,59.559 60.314 C 59.725 60.451,65.921 60.490,82.768 60.459 L 105.750 60.417 105.798 58.764 C 105.833 57.554,105.789 57.074,105.631 56.975 C 105.263 56.741,59.768 56.799,59.533 57.033 M269.625 58.122 C 270.015 58.157,270.652 58.157,271.042 58.122 C 271.431 58.087,271.112 58.058,270.333 58.058 C 269.554 58.058,269.235 58.087,269.625 58.122 M61.238 76.388 C 61.192 76.509,61.175 77.315,61.202 78.179 L 61.250 79.750 69.898 79.793 C 76.145 79.824,78.609 79.784,78.773 79.648 C 79.069 79.402,79.092 76.659,78.800 76.367 C 78.493 76.059,61.356 76.080,61.238 76.388 M162.700 85.367 C 162.491 85.575,162.414 88.082,162.601 88.570 C 162.756 88.974,208.744 88.974,208.899 88.570 C 209.086 88.082,209.009 85.575,208.800 85.367 C 208.509 85.076,162.991 85.076,162.700 85.367 M59.534 95.699 C 59.242 95.991,59.263 98.734,59.559 98.980 C 59.725 99.118,65.921 99.157,82.768 99.126 L 105.750 99.083 105.750 97.333 L 105.750 95.583 82.742 95.541 C 64.985 95.508,59.689 95.545,59.534 95.699 M132.405 100.888 C 132.358 101.009,132.342 101.815,132.368 102.679 L 132.417 104.250 141.064 104.293 C 147.312 104.324,149.775 104.284,149.939 104.148 C 150.175 103.952,150.272 101.469,150.066 100.930 C 149.925 100.565,132.545 100.523,132.405 100.888 M258.625 131.958 C 265.706 131.982,277.294 131.982,284.375 131.958 C 291.456 131.934,285.662 131.915,271.500 131.915 C 257.337 131.915,251.544 131.934,258.625 131.958 M297.667 132.385 C 297.667 132.414,297.910 132.658,298.208 132.927 L 298.750 133.417 298.260 132.875 C 297.804 132.370,297.667 132.257,297.667 132.385 M43.292 135.333 C 43.441 135.501,43.500 136.379,43.500 138.449 L 43.500 141.331 32.958 141.376 L 22.417 141.420 33.000 141.419 L 43.583 141.417 43.629 138.482 C 43.670 135.836,43.645 135.525,43.379 135.323 C 43.127 135.132,43.114 135.134,43.292 135.333 M298.167 139.750 C 297.762 140.162,297.468 140.500,297.514 140.500 C 297.560 140.500,297.928 140.162,298.333 139.750 C 298.738 139.337,299.032 139.000,298.986 139.000 C 298.940 139.000,298.572 139.337,298.167 139.750 M43.578 153.667 C 43.578 159.396,43.599 161.740,43.625 158.875 C 43.650 156.010,43.650 151.323,43.625 148.458 C 43.599 145.594,43.578 147.938,43.578 153.667 M23.833 151.833 L 23.250 151.956 23.782 151.978 C 24.074 151.990,24.360 151.925,24.417 151.833 C 24.473 151.742,24.496 151.677,24.468 151.689 C 24.440 151.701,24.154 151.766,23.833 151.833 M289.394 153.417 C 289.395 154.333,289.423 154.687,289.456 154.203 C 289.490 153.718,289.490 152.968,289.456 152.536 C 289.421 152.104,289.394 152.500,289.394 153.417 M115.503 152.542 C 115.500 152.818,116.589 152.831,136.375 152.792 L 157.250 152.751 136.509 152.708 C 120.171 152.674,115.741 152.621,115.637 152.458 C 115.543 152.310,115.504 152.334,115.503 152.542 " stroke="none" fill="#bababa" fill-rule="evenodd"></path><path id="path4" d="M246.131 132.378 C 247.888 134.249,247.945 137.876,246.252 140.095 C 246.022 140.397,245.833 140.687,245.833 140.739 C 245.833 140.791,257.352 140.833,271.431 140.833 L 297.029 140.833 298.094 139.811 C 300.459 137.540,300.509 135.469,298.258 133.038 L 297.297 132.000 271.536 132.000 L 245.775 132.000 246.131 132.378 M30.250 132.686 C 27.894 133.028,25.128 133.974,23.230 135.086 L 22.500 135.514 22.500 138.424 L 22.500 141.333 33.000 141.333 L 43.500 141.333 43.500 138.428 L 43.500 135.523 43.011 135.175 C 40.372 133.296,34.259 132.103,30.250 132.686 M121.500 138.666 C 121.500 138.758,121.209 139.489,120.853 140.291 C 120.255 141.638,119.663 143.010,117.457 148.167 C 115.915 151.772,115.621 152.510,115.700 152.589 C 115.744 152.632,125.079 152.649,136.446 152.626 L 157.114 152.583 155.383 148.583 C 153.293 143.755,152.494 141.881,151.706 139.958 L 151.108 138.500 136.304 138.500 C 126.559 138.500,121.500 138.557,121.500 138.666 M22.500 153.667 L 22.500 164.000 33.000 164.000 L 43.500 164.000 43.500 153.667 L 43.500 143.333 33.000 143.333 L 22.500 143.333 22.500 153.667 M244.303 145.548 C 236.246 151.079,236.043 157.138,243.723 162.860 L 245.029 163.833 268.449 163.833 C 287.119 163.833,291.852 163.791,291.784 163.625 C 290.830 161.278,290.529 160.395,290.037 158.500 C 288.905 154.137,289.249 149.748,290.994 146.292 L 291.646 145.000 268.365 145.006 L 245.083 145.012 244.303 145.548 M24.417 149.333 L 24.417 151.917 23.875 151.969 L 23.333 152.021 23.333 149.333 L 23.333 146.646 23.875 146.698 L 24.417 146.750 24.417 149.333 M197.168 152.853 C 191.845 153.657,186.833 158.865,186.833 163.592 L 186.833 164.000 201.833 164.000 C 210.083 164.000,216.832 163.944,216.830 163.875 C 216.727 159.399,212.504 154.435,207.692 153.133 C 206.224 152.736,199.184 152.549,197.168 152.853 M105.409 155.076 L 105.000 155.485 105.000 159.742 L 105.000 164.000 136.333 164.000 L 167.667 164.000 167.667 159.742 L 167.667 155.485 167.258 155.076 L 166.848 154.667 136.333 154.667 L 105.818 154.667 105.409 155.076 M24.465 157.958 L 24.417 159.417 23.875 159.469 L 23.333 159.521 23.333 158.011 L 23.333 156.500 23.923 156.500 L 24.513 156.500 24.465 157.958 " stroke="none" fill="#dddddd" fill-rule="evenodd"></path></g></svg>